<!-- Generated by IcoMoon.io -->
<svg version="1.1" xmlns="http://www.w3.org/2000/svg" width="1024" height="1024" viewBox="0 0 1024 1024">
<title></title>
<g id="icomoon-ignore">
</g>
<path fill="#ffffff" d="M365.952 332.928l-283.704 41.483-3.584 0.828c-14.803 4.754-19.975 24.111-8.216 35.564l205.306 199.928-48.461 282.516-0.321 3.425c-0.241 15.679 16.67 26.744 31.277 19.062l253.75-133.484 253.75 133.484 3.158 1.364c14.837 5.076 30.588-7.586 27.798-23.852l-48.504-282.516 205.349-199.928 2.416-2.773c9.197-12.536 2.026-31.244-14.216-33.618l-283.747-41.483-126.876-257.037c-7.826-15.854-30.434-15.854-38.26 0l-126.915 257.037z"></path>
</svg>
